Coordinates
version=1
nRows=27
nColumns=12
inDegrees=yes

Units are S.I. units (second, meters, Newtons, ...)
Angles are in degrees

endheader
time	SC_y	SC_z	SC_x	AC_y	AC_z	AC_x	GH_y	GH_z	GH_yy	EL_x	PS_y
       0.0              -41.32          35.61          21.81          33.38         -0.223          6.508          170.5          62.22          74.09          29.77          114.3
   0.01542              -41.32          35.61          21.81          33.38        -0.2225          6.505          170.5          62.22          74.06          29.78          114.3
   0.03085              -41.32          35.61          21.81          33.39        -0.2219          6.502          170.5          62.22          74.04          29.79          114.3
   0.04627              -41.32          35.61          21.81          33.39        -0.2212          6.499          170.4          62.21          74.01           29.8          114.3
   0.06169              -41.33          35.61           21.8           33.4        -0.2206          6.495          170.4          62.21          73.98           29.8          114.3
   0.07711              -41.33          35.61           21.8           33.4        -0.2198          6.491          170.4          62.21          73.95          29.81          114.3
   0.09254              -41.33           35.6           21.8          33.41        -0.2191          6.487          170.3          62.21          73.92          29.82          114.3
     0.108              -41.34           35.6           21.8          33.41        -0.2182          6.483          170.3          62.21          73.88          29.83          114.3
    0.1234              -41.34           35.6           21.8          33.42        -0.2173          6.478          170.2           62.2          73.84          29.84          114.3
    0.1388              -41.34           35.6          21.79          33.42        -0.2164          6.473          170.2           62.2           73.8          29.86          114.3
    0.1542              -41.35          35.59          21.79          33.43        -0.2154          6.467          170.1           62.2          73.76          29.87          114.2
    0.1697              -41.35          35.59          21.79          33.44        -0.2143          6.461          170.1          62.19          73.71          29.88          114.2
    0.1851              -41.36          35.59          21.78          33.45        -0.2131          6.455          170.0          62.19          73.66           29.9          114.2
    0.2005              -41.36          35.58          21.78          33.46        -0.2118          6.448          170.0          62.19           73.6          29.91          114.2
    0.2159              -41.37          35.58          21.78          33.46        -0.2104          6.441          169.9          62.18          73.54          29.93          114.2
    0.2313              -41.37          35.58          21.77          33.47        -0.2089          6.433          169.8          62.18          73.48          29.95          114.2
    0.2468              -41.38          35.57          21.77          33.49        -0.2073          6.424          169.7          62.18           73.4          29.97          114.2
    0.2622              -41.39          35.57          21.76           33.5        -0.2055          6.414          169.7          62.17          73.33          29.99          114.2
    0.2776              -41.39          35.56          21.76          33.51        -0.2035          6.404          169.6          62.17          73.24          30.02          114.2
     0.293               -41.4          35.55          21.75          33.53        -0.2014          6.393          169.5          62.16          73.15          30.04          114.1
    0.3085              -41.41          35.55          21.74          33.54        -0.1991           6.38          169.3          62.15          73.05          30.07          114.1
    0.3239              -41.42          35.54          21.74          33.56        -0.1965          6.366          169.2          62.15          72.94           30.1          114.1
    0.3393              -41.43          35.53          21.73          33.58        -0.1937          6.351          169.1          62.14          72.81          30.14          114.1
    0.3547              -41.45          35.52          21.72           33.6        -0.1905          6.334          168.9          62.13          72.68          30.18          114.1
    0.3701              -41.46          35.51          21.71          33.62         -0.187          6.316          168.8          62.12          72.52          30.22          114.0
    0.3856              -41.48           35.5           21.7          33.65        -0.1831          6.295          168.6          62.11          72.36          30.27          114.0
     0.401              -41.49          35.49          21.69          33.68        -0.1787          6.271          168.3           62.1          72.17          30.32          114.0
